<svg class="svgBody" width="300" height="300" viewBox="0 0 300 300" xmlns="http://www.w3.org/2000/svg"><defs><style>@import url("https://fonts.googleapis.com/css2?family=Orbitron");</style></defs><style><![CDATA[svg text{stroke:none}]]></style><style type="text/css">.st0{fill:#FFFFFF;}.st1{display:none;fill:none;stroke:#FFFFFF;stroke-width:0.5;}.st2{fill:#B0EFEB;}.st3{fill:#EDFFA9;}.st4{display:none;}.st5{fill:#FFFFFF;}.st20{fill:#FFB031;} .st21{fill:#FFA300;} .st22{fill:#E58D00;} .st23{fill:#2D190B;} .st24{fill:#3D2515;} .st25{fill:#3F2819;}.st26{fill:#211207;} .st27{fill:#4C3322;} .st28{fill:#351F10;} .st29{fill:#5B412F;}.st30{fill:#563D2D;} .st31{fill:#664C3A;} .st32{fill:#68471F;} .st33{fill:#F9D39B;} .st34{fill:#28160B;} .st35{fill:none;}</style><g id="Base_Layer"><path d="M10,0h280c5.5,0,10,4.5,10,10v280c0,5.5-4.5,10-10,10H10c-5.5,0-10-4.5-10-10V10C0,4.5,4.5,0,10,0z"/><rect y="64.2" class="st0" width="300" height="117.4"/><rect x="0" y="187.9" class="st2" width="300" height="53.9"/><rect x="0" y="244.5" class="st3" width="300.5" height="45.4"/><rect x="226.9" y="86.8" class="st4" width="56.3" height="212.7"/><line class="st5" x1="235" y1="90" x2="235" y2="300"/><line class="st6" x1="245" y1="90" x2="245" y2="300"/><line class="st7" x1="255" y1="90" x2="255" y2="300"/><line class="st8" x1="275.2" y1="90" x2="275.2" y2="300"/><text x="50" y="40" class="st0" font-size="30px" font-family="Orbitron">ELIXIR NFT</text><text x="14" y="210" font-family="Orbitron">Elixir Price - </text><text x="124" y="210" font-family="Orbitron">18085249 </text><text x="14" y="265" font-family="Orbitron">Alchemist</text><text x="14" y="280"  font-size="7px"  font-family="Orbitron">0xf39fd6e51aad88f6f4ce6ab8827279cfffb92266 </text><line class="st9" x1="265.2" y1="90" x2="265.2" y2="300"/></g><g id="Treasure_Chest_Closed"><g><rect x="197.3" y="117.1" class="st20" width="3.8" height="3.8"/><rect x="197.3" y="113.3" class="st21" width="3.8" height="3.8"/><rect x="197.3" y="109.5" class="st20" width="3.8" height="3.8"/><rect x="197.3" y="105.7" class="st21" width="3.8" height="3.8"/><rect x="98.9" y="105.7" class="st33" width="3.8" height="3.8"/><rect x="98.9" y="101.9" class="st20" width="3.8" height="3.8"/><rect x="98.9" y="98.1" class="st21" width="3.8" height="3.8"/><rect x="98.9" y="94.3" class="st33" width="3.8" height="3.8"/><rect x="98.9" y="90.5" class="st20" width="3.8" height="3.8"/></g></g></svg>